<mxfile host="65bd71144e">
    <diagram id="ZCyFRpAXJA6o1ECjosCz" name="Page-1">
        <mxGraphModel dx="1470" dy="573" grid="1" gridSize="10" guides="1" tooltips="1" connect="1" arrows="1" fold="1" page="1" pageScale="1" pageWidth="850" pageHeight="1100" math="0" shadow="0">
            <root>
                <mxCell id="0"/>
                <mxCell id="1" parent="0"/>
                <mxCell id="157" value="" style="rounded=0;whiteSpace=wrap;html=1;fillColor=none;strokeColor=#CCCCCC;movable=1;resizable=1;rotatable=1;deletable=1;editable=1;connectable=1;" vertex="1" parent="1">
                    <mxGeometry x="20" y="1095" width="1040" height="435" as="geometry"/>
                </mxCell>
                <mxCell id="34" value="" style="group;movable=1;resizable=1;rotatable=1;deletable=1;editable=1;connectable=1;" vertex="1" connectable="0" parent="1">
                    <mxGeometry x="-390" y="20" width="1360" height="720" as="geometry"/>
                </mxCell>
                <mxCell id="3" value="" style="rounded=0;whiteSpace=wrap;html=1;fillColor=none;strokeColor=#CCCCCC;movable=1;resizable=1;rotatable=1;deletable=1;editable=1;connectable=1;" vertex="1" parent="34">
                    <mxGeometry x="240" width="1120" height="430" as="geometry"/>
                </mxCell>
                <mxCell id="4" value="Angular Service Layering" style="text;html=1;strokeColor=none;fillColor=none;align=center;verticalAlign=middle;whiteSpace=wrap;rounded=0;" vertex="1" parent="34">
                    <mxGeometry x="720" y="10" width="160" height="30" as="geometry"/>
                </mxCell>
                <mxCell id="5" value="Store&lt;br&gt;Communication&lt;br&gt;Service" style="rounded=1;whiteSpace=wrap;html=1;strokeColor=#FFFFFF;" vertex="1" parent="34">
                    <mxGeometry x="815" y="150" width="120" height="60" as="geometry"/>
                </mxCell>
                <mxCell id="6" value="Example&lt;br&gt;&lt;b&gt;Component&lt;/b&gt;" style="html=1;dropTarget=0;strokeColor=#CCCCCC;" vertex="1" parent="34">
                    <mxGeometry x="1020" y="90" width="180" height="90" as="geometry"/>
                </mxCell>
                <mxCell id="7" value="" style="shape=module;jettyWidth=8;jettyHeight=4;strokeColor=#CCCCCC;" vertex="1" parent="6">
                    <mxGeometry x="1" width="20" height="20" relative="1" as="geometry">
                        <mxPoint x="-27" y="7" as="offset"/>
                    </mxGeometry>
                </mxCell>
                <mxCell id="8" style="edgeStyle=none;html=1;entryX=0;entryY=0.5;entryDx=0;entryDy=0;" edge="1" parent="34" source="5" target="6">
                    <mxGeometry relative="1" as="geometry">
                        <Array as="points">
                            <mxPoint x="1000" y="180"/>
                            <mxPoint x="1000" y="135"/>
                        </Array>
                    </mxGeometry>
                </mxCell>
                <mxCell id="9" value="INJECT" style="edgeLabel;html=1;align=center;verticalAlign=middle;resizable=0;points=[];" vertex="1" connectable="0" parent="8">
                    <mxGeometry x="0.2336" relative="1" as="geometry">
                        <mxPoint x="-31" y="1" as="offset"/>
                    </mxGeometry>
                </mxCell>
                <mxCell id="10" value="Layers&lt;br&gt;Communication&lt;br&gt;Service" style="rounded=1;whiteSpace=wrap;html=1;strokeColor=#FFFFFF;" vertex="1" parent="34">
                    <mxGeometry x="620" y="150" width="120" height="60" as="geometry"/>
                </mxCell>
                <mxCell id="11" style="edgeStyle=none;html=1;entryX=1;entryY=0.5;entryDx=0;entryDy=0;" edge="1" parent="34" source="5" target="10">
                    <mxGeometry relative="1" as="geometry"/>
                </mxCell>
                <mxCell id="12" value="EXTENDS" style="edgeLabel;html=1;align=center;verticalAlign=middle;resizable=0;points=[];" vertex="1" connectable="0" parent="11">
                    <mxGeometry x="0.2088" y="-4" relative="1" as="geometry">
                        <mxPoint x="10" y="-8" as="offset"/>
                    </mxGeometry>
                </mxCell>
                <mxCell id="14" value="REGISTER" style="edgeStyle=none;html=1;entryX=0;entryY=0.25;entryDx=0;entryDy=0;" edge="1" parent="34">
                    <mxGeometry x="0.3103" y="15" relative="1" as="geometry">
                        <mxPoint x="530" y="110" as="sourcePoint"/>
                        <mxPoint x="620" y="165" as="targetPoint"/>
                        <Array as="points">
                            <mxPoint x="530" y="165"/>
                        </Array>
                        <mxPoint as="offset"/>
                    </mxGeometry>
                </mxCell>
                <mxCell id="13" value="Event Layer" style="rounded=1;whiteSpace=wrap;html=1;strokeColor=#FFFFFF;" vertex="1" parent="34">
                    <mxGeometry x="470" y="50" width="120" height="60" as="geometry"/>
                </mxCell>
                <mxCell id="16" style="edgeStyle=none;html=1;entryX=0;entryY=0.5;entryDx=0;entryDy=0;" edge="1" parent="34" source="15" target="10">
                    <mxGeometry relative="1" as="geometry">
                        <Array as="points">
                            <mxPoint x="530" y="180"/>
                        </Array>
                    </mxGeometry>
                </mxCell>
                <mxCell id="17" value="REGISTER" style="edgeLabel;html=1;align=center;verticalAlign=middle;resizable=0;points=[];" vertex="1" connectable="0" parent="16">
                    <mxGeometry x="0.5343" y="-1" relative="1" as="geometry">
                        <mxPoint x="-17" y="11" as="offset"/>
                    </mxGeometry>
                </mxCell>
                <mxCell id="15" value="Records&lt;br&gt;Sub Communication&lt;br&gt;Layer" style="rounded=1;whiteSpace=wrap;html=1;strokeColor=#FFFFFF;" vertex="1" parent="34">
                    <mxGeometry x="470" y="230" width="120" height="60" as="geometry"/>
                </mxCell>
                <mxCell id="19" style="edgeStyle=none;html=1;entryX=0.5;entryY=1;entryDx=0;entryDy=0;" edge="1" parent="34" source="18" target="15">
                    <mxGeometry relative="1" as="geometry">
                        <Array as="points">
                            <mxPoint x="530" y="330"/>
                        </Array>
                    </mxGeometry>
                </mxCell>
                <mxCell id="20" value="REGISTER" style="edgeLabel;html=1;align=center;verticalAlign=middle;resizable=0;points=[];" vertex="1" connectable="0" parent="19">
                    <mxGeometry x="-0.2702" y="-2" relative="1" as="geometry">
                        <mxPoint y="-13" as="offset"/>
                    </mxGeometry>
                </mxCell>
                <mxCell id="18" value="Contact Layer" style="rounded=1;whiteSpace=wrap;html=1;strokeColor=#FFFFFF;" vertex="1" parent="34">
                    <mxGeometry x="270" y="300" width="120" height="60" as="geometry"/>
                </mxCell>
                <mxCell id="25" style="edgeStyle=none;html=1;entryX=0.5;entryY=1;entryDx=0;entryDy=0;dashed=1;" edge="1" parent="34" source="22" target="15">
                    <mxGeometry relative="1" as="geometry">
                        <Array as="points">
                            <mxPoint x="530" y="500"/>
                        </Array>
                    </mxGeometry>
                </mxCell>
                <mxCell id="33" value="&lt;font color=&quot;#ffffff&quot;&gt;Change&lt;/font&gt;" style="edgeLabel;html=1;align=center;verticalAlign=middle;resizable=0;points=[];fontColor=#000000;" vertex="1" connectable="0" parent="25">
                    <mxGeometry x="0.3143" relative="1" as="geometry">
                        <mxPoint y="-1" as="offset"/>
                    </mxGeometry>
                </mxCell>
                <mxCell id="22" value="Employee Layer" style="rounded=1;whiteSpace=wrap;html=1;strokeColor=#FFFFFF;" vertex="1" parent="34">
                    <mxGeometry x="260" y="470" width="120" height="60" as="geometry"/>
                </mxCell>
                <mxCell id="24" style="edgeStyle=none;html=1;entryX=0;entryY=0.5;entryDx=0;entryDy=0;dashed=1;" edge="1" parent="34" source="23" target="22">
                    <mxGeometry relative="1" as="geometry"/>
                </mxCell>
                <mxCell id="23" value="&lt;h1 style=&quot;text-align: center;&quot;&gt;&lt;font&gt;New record&lt;/font&gt;&lt;/h1&gt;&lt;div&gt;&lt;font&gt;Easy added encapsulated service.&lt;/font&gt;&lt;/div&gt;&lt;div&gt;&lt;font&gt;Create new normal service, add @Layer decorator and register to a proper parent&lt;/font&gt;&lt;/div&gt;" style="text;html=1;strokeColor=#0e8088;fillColor=#BDF4F7;spacing=5;spacingTop=-20;whiteSpace=wrap;overflow=hidden;rounded=0;fontColor=#000000;" vertex="1" parent="34">
                    <mxGeometry y="440" width="200" height="120" as="geometry"/>
                </mxCell>
                <mxCell id="27" style="edgeStyle=none;html=1;entryX=0.5;entryY=1;entryDx=0;entryDy=0;dashed=1;" edge="1" parent="34" source="26" target="5">
                    <mxGeometry relative="1" as="geometry"/>
                </mxCell>
                <mxCell id="26" value="&lt;h1 style=&quot;text-align: center;&quot;&gt;After registeration&lt;/h1&gt;&lt;div&gt;Store service will have new method(s) available. Every class that injected this service can use the new methods.&lt;/div&gt;" style="text;html=1;strokeColor=#0e8088;fillColor=#b0e3e6;spacing=5;spacingTop=-20;whiteSpace=wrap;overflow=hidden;rounded=0;fontColor=#000000;align=left;" vertex="1" parent="34">
                    <mxGeometry x="757.5" y="260" width="235" height="120" as="geometry"/>
                </mxCell>
                <mxCell id="32" style="edgeStyle=none;html=1;exitX=0;exitY=0.5;exitDx=0;exitDy=0;entryX=0.25;entryY=1;entryDx=0;entryDy=0;dashed=1;fontColor=#000000;" edge="1" parent="34" source="28" target="6">
                    <mxGeometry relative="1" as="geometry">
                        <Array as="points">
                            <mxPoint x="1065" y="270"/>
                        </Array>
                    </mxGeometry>
                </mxCell>
                <mxCell id="28" value="&lt;h1 style=&quot;text-align: center;&quot;&gt;Component&amp;nbsp;&lt;/h1&gt;&lt;div&gt;Consumer does need to know where method is coming from. Consumer, like a component, only need to comsume it with helpful autocompletes.&amp;nbsp;&lt;/div&gt;" style="text;html=1;strokeColor=#0e8088;fillColor=#b0e3e6;spacing=5;spacingTop=-20;whiteSpace=wrap;overflow=hidden;rounded=0;fontColor=#000000;" vertex="1" parent="34">
                    <mxGeometry x="1090" y="210" width="230" height="120" as="geometry"/>
                </mxCell>
                <mxCell id="31" style="edgeStyle=none;html=1;entryX=0.5;entryY=1;entryDx=0;entryDy=0;dashed=1;" edge="1" parent="34" source="30" target="22">
                    <mxGeometry relative="1" as="geometry">
                        <Array as="points">
                            <mxPoint x="320" y="660"/>
                        </Array>
                    </mxGeometry>
                </mxCell>
                <mxCell id="30" value="&lt;h1 style=&quot;text-align: center;&quot;&gt;Testing&lt;/h1&gt;&lt;p&gt;testing only need to be written for the new service.&amp;nbsp;&lt;/p&gt;" style="text;html=1;strokeColor=none;fillColor=#BDF4F7;spacing=5;spacingTop=-20;whiteSpace=wrap;overflow=hidden;rounded=0;fontColor=#000000;" vertex="1" parent="34">
                    <mxGeometry x="5" y="600" width="190" height="120" as="geometry"/>
                </mxCell>
                <mxCell id="207" style="edgeStyle=none;html=1;entryX=1;entryY=0.75;entryDx=0;entryDy=0;fontColor=#FFFFFF;dashed=1;" edge="1" parent="34" source="206" target="22">
                    <mxGeometry relative="1" as="geometry">
                        <Array as="points">
                            <mxPoint x="475" y="515"/>
                        </Array>
                    </mxGeometry>
                </mxCell>
                <mxCell id="206" value="&lt;h1 style=&quot;text-align: center;&quot;&gt;Updates&lt;/h1&gt;&lt;p&gt;Any changes or updates to the behaviors is done here.&amp;nbsp;&lt;/p&gt;&lt;p&gt;Note: The consumer may have to reflect some changes as well, which is expected.&lt;/p&gt;" style="text;html=1;strokeColor=none;fillColor=#BDF4F7;spacing=5;spacingTop=-20;whiteSpace=wrap;overflow=hidden;rounded=0;fontColor=#000000;" vertex="1" parent="34">
                    <mxGeometry x="380" y="570" width="190" height="140" as="geometry"/>
                </mxCell>
                <mxCell id="210" style="edgeStyle=none;html=1;entryX=0.25;entryY=0;entryDx=0;entryDy=0;dashed=1;fontColor=#FFFFFF;" edge="1" parent="34" source="209" target="15">
                    <mxGeometry relative="1" as="geometry">
                        <Array as="points">
                            <mxPoint x="500" y="190"/>
                        </Array>
                    </mxGeometry>
                </mxCell>
                <mxCell id="209" value="&lt;h1 style=&quot;text-align: center;&quot;&gt;Merging&lt;/h1&gt;&lt;div&gt;Records communication layer can create method that utilize any of the children layers.&amp;nbsp;&lt;/div&gt;" style="text;html=1;strokeColor=#0e8088;fillColor=#BDF4F7;spacing=5;spacingTop=-20;whiteSpace=wrap;overflow=hidden;rounded=0;fontColor=#000000;" vertex="1" parent="34">
                    <mxGeometry x="250" y="130" width="200" height="120" as="geometry"/>
                </mxCell>
                <mxCell id="155" value="Example&lt;br&gt;&lt;b&gt;Component&lt;/b&gt;" style="html=1;dropTarget=0;strokeColor=#CCCCCC;" vertex="1" parent="1">
                    <mxGeometry x="820" y="1255" width="180" height="90" as="geometry"/>
                </mxCell>
                <mxCell id="156" value="" style="shape=module;jettyWidth=8;jettyHeight=4;strokeColor=#CCCCCC;" vertex="1" parent="155">
                    <mxGeometry x="1" width="20" height="20" relative="1" as="geometry">
                        <mxPoint x="-27" y="7" as="offset"/>
                    </mxGeometry>
                </mxCell>
                <mxCell id="159" value="Angular Service Composition with Similar consumer beheavor" style="text;html=1;strokeColor=none;fillColor=none;align=center;verticalAlign=middle;whiteSpace=wrap;rounded=0;" vertex="1" parent="1">
                    <mxGeometry x="310" y="1130" width="220" height="30" as="geometry"/>
                </mxCell>
                <mxCell id="169" style="edgeStyle=none;html=1;entryX=0;entryY=0.5;entryDx=0;entryDy=0;fontColor=#FFFFFF;" edge="1" parent="1" source="160" target="155">
                    <mxGeometry relative="1" as="geometry"/>
                </mxCell>
                <mxCell id="160" value="Store Service" style="rounded=1;whiteSpace=wrap;html=1;strokeColor=#FFFFFF;" vertex="1" parent="1">
                    <mxGeometry x="380" y="1270" width="120" height="60" as="geometry"/>
                </mxCell>
                <mxCell id="168" style="edgeStyle=none;html=1;exitX=1;exitY=0.5;exitDx=0;exitDy=0;entryX=0.5;entryY=0;entryDx=0;entryDy=0;fontColor=#FFFFFF;" edge="1" parent="1" source="161" target="160">
                    <mxGeometry relative="1" as="geometry">
                        <Array as="points">
                            <mxPoint x="440" y="1200"/>
                        </Array>
                    </mxGeometry>
                </mxCell>
                <mxCell id="205" value="Inject" style="edgeLabel;html=1;align=center;verticalAlign=middle;resizable=0;points=[];fontColor=#FFFFFF;" vertex="1" connectable="0" parent="168">
                    <mxGeometry x="-0.0496" y="-3" relative="1" as="geometry">
                        <mxPoint y="10" as="offset"/>
                    </mxGeometry>
                </mxCell>
                <mxCell id="161" value="Event Service" style="rounded=1;whiteSpace=wrap;html=1;strokeColor=#FFFFFF;" vertex="1" parent="1">
                    <mxGeometry x="100" y="1170" width="120" height="60" as="geometry"/>
                </mxCell>
                <mxCell id="166" style="edgeStyle=none;html=1;exitX=1;exitY=0.5;exitDx=0;exitDy=0;entryX=0;entryY=0.5;entryDx=0;entryDy=0;fontColor=#FFFFFF;" edge="1" parent="1" source="162" target="160">
                    <mxGeometry relative="1" as="geometry"/>
                </mxCell>
                <mxCell id="204" value="Inject" style="edgeLabel;html=1;align=center;verticalAlign=middle;resizable=0;points=[];fontColor=#FFFFFF;" vertex="1" connectable="0" parent="166">
                    <mxGeometry x="0.206" y="-2" relative="1" as="geometry">
                        <mxPoint x="-11" y="10" as="offset"/>
                    </mxGeometry>
                </mxCell>
                <mxCell id="212" style="edgeStyle=none;html=1;exitX=0.5;exitY=1;exitDx=0;exitDy=0;entryX=0.5;entryY=0;entryDx=0;entryDy=0;dashed=1;fontColor=#FFFFFF;" edge="1" parent="1" source="162" target="208">
                    <mxGeometry relative="1" as="geometry"/>
                </mxCell>
                <mxCell id="162" value="Contact Service" style="rounded=1;whiteSpace=wrap;html=1;strokeColor=#FFFFFF;" vertex="1" parent="1">
                    <mxGeometry x="100" y="1270" width="120" height="60" as="geometry"/>
                </mxCell>
                <mxCell id="165" style="edgeStyle=none;html=1;dashed=1;fontColor=#FFFFFF;" edge="1" parent="1" source="163" target="160">
                    <mxGeometry relative="1" as="geometry">
                        <Array as="points">
                            <mxPoint x="440" y="1590"/>
                        </Array>
                    </mxGeometry>
                </mxCell>
                <mxCell id="202" value="Inject New" style="edgeLabel;html=1;align=center;verticalAlign=middle;resizable=0;points=[];fontColor=#FFFFFF;" vertex="1" connectable="0" parent="165">
                    <mxGeometry x="0.4568" relative="1" as="geometry">
                        <mxPoint as="offset"/>
                    </mxGeometry>
                </mxCell>
                <mxCell id="213" style="edgeStyle=none;html=1;exitX=0.5;exitY=0;exitDx=0;exitDy=0;entryX=0.5;entryY=1;entryDx=0;entryDy=0;dashed=1;fontColor=#FFFFFF;" edge="1" parent="1" source="163" target="208">
                    <mxGeometry relative="1" as="geometry"/>
                </mxCell>
                <mxCell id="163" value="Employee Service" style="rounded=1;whiteSpace=wrap;html=1;strokeColor=#FFFFFF;" vertex="1" parent="1">
                    <mxGeometry x="110" y="1560" width="120" height="60" as="geometry"/>
                </mxCell>
                <mxCell id="203" style="edgeStyle=none;html=1;entryX=1;entryY=0.75;entryDx=0;entryDy=0;fontColor=#FFFFFF;" edge="1" parent="1" source="200" target="160">
                    <mxGeometry relative="1" as="geometry"/>
                </mxCell>
                <mxCell id="200" value="&lt;h1 style=&quot;text-align: center;&quot;&gt;After Injection&lt;/h1&gt;&lt;div&gt;Store service will have to make a wrapper method for all public method that store will have. Or make injected services public, which is not advisable.&lt;/div&gt;" style="text;html=1;strokeColor=#0e8088;fillColor=#b0e3e6;spacing=5;spacingTop=-20;whiteSpace=wrap;overflow=hidden;rounded=0;fontColor=#000000;align=left;" vertex="1" parent="1">
                    <mxGeometry x="520" y="1360" width="235" height="120" as="geometry"/>
                </mxCell>
                <mxCell id="211" style="edgeStyle=none;html=1;entryX=0.25;entryY=1;entryDx=0;entryDy=0;dashed=1;fontColor=#FFFFFF;" edge="1" parent="1" source="208" target="160">
                    <mxGeometry relative="1" as="geometry">
                        <Array as="points">
                            <mxPoint x="410" y="1450"/>
                        </Array>
                    </mxGeometry>
                </mxCell>
                <mxCell id="208" value="&lt;h1 style=&quot;text-align: center;&quot;&gt;Update&lt;/h1&gt;&lt;div&gt;Any updates in the children services will affect store or any parent service wrapped methods.&lt;/div&gt;" style="text;html=1;strokeColor=#0e8088;fillColor=#b0e3e6;spacing=5;spacingTop=-20;whiteSpace=wrap;overflow=hidden;rounded=0;fontColor=#000000;align=left;" vertex="1" parent="1">
                    <mxGeometry x="75" y="1390" width="235" height="120" as="geometry"/>
                </mxCell>
                <mxCell id="214" value="&lt;h1 style=&quot;text-align: center;&quot;&gt;Merge&lt;/h1&gt;&lt;div&gt;Any methods, which&amp;nbsp; utilizes of multiple child services methods will have to be create in Store service or some merge class. Or a merge service&lt;/div&gt;" style="text;html=1;strokeColor=#0e8088;fillColor=#b0e3e6;spacing=5;spacingTop=-20;whiteSpace=wrap;overflow=hidden;rounded=0;fontColor=#000000;align=left;" vertex="1" parent="1">
                    <mxGeometry x="550" y="1135" width="235" height="120" as="geometry"/>
                </mxCell>
            </root>
        </mxGraphModel>
    </diagram>
</mxfile>